<svg xmlns="http://www.w3.org/2000/svg" width="278.024" height="52.562" viewBox="0 0 278.024 52.562">
  <g id="Grupo_974472" data-name="Grupo 974472" transform="translate(-939.976 -4240.13)">
    <g id="Grupo_974470" data-name="Grupo 974470">
      <path id="Trazado_654739" data-name="Trazado 654739" d="M6088.494-7873.363h113.613" transform="translate(-4984.107 12145.277)" fill="none" stroke="#12263f" stroke-width="2"/>
      <g id="Grupo_974469" data-name="Grupo 974469">
        <path id="Trazado_655249" data-name="Trazado 655249" d="M3.129-8.981,3.2-7.944a3.136,3.136,0,0,1,2.582-1.2,2.606,2.606,0,0,1,2.125.838A3.912,3.912,0,0,1,8.625-5.8V0h-2.4V-5.744a1.556,1.556,0,0,0-.332-1.108A1.486,1.486,0,0,0,4.79-7.2a1.65,1.65,0,0,0-1.519.863V0H.872V-8.981Z" transform="translate(1171.193 4284.277)" fill="#12263f"/>
        <g id="Grupo_974468" data-name="Grupo 974468">
          <g id="Grupo_974467" data-name="Grupo 974467">
            <g id="Grupo_974449" data-name="Grupo 974449" transform="translate(0 12)">
              <g id="Grupo_974466" data-name="Grupo 974466">
                <g id="Grupo_974471" data-name="Grupo 974471">
                  <path id="Trazado_655247" data-name="Trazado 655247" d="M140.409,14.737a4.528,4.528,0,0,1-1.525,3.252,5.355,5.355,0,0,1-3.625,1.187,4.816,4.816,0,0,1-3.872-1.657,6.793,6.793,0,0,1-1.411-4.548v-.782a7.671,7.671,0,0,1,.65-3.252,4.874,4.874,0,0,1,1.859-2.158,5.809,5.809,0,0,1,6.376.435,4.866,4.866,0,0,1,1.564,3.331H137.79a2.673,2.673,0,0,0-.69-1.8,2.555,2.555,0,0,0-1.806-.558,2.24,2.24,0,0,0-1.973.945,5.3,5.3,0,0,0-.672,2.931v.967a5.667,5.667,0,0,0,.628,3.032,2.2,2.2,0,0,0,1.982.958,2.6,2.6,0,0,0,1.824-.558,2.521,2.521,0,0,0,.69-1.727Zm8.956,1.626h-4.623L143.863,19h-2.8l4.764-12.8h2.443l4.79,12.8h-2.8Zm-3.911-2.136h3.2l-1.608-4.79ZM163.788,6.2v8.429a4.315,4.315,0,0,1-1.314,3.322,5.066,5.066,0,0,1-3.59,1.222,5.123,5.123,0,0,1-3.56-1.187,4.242,4.242,0,0,1-1.345-3.261V6.2h2.637v8.446a2.438,2.438,0,0,0,.6,1.833,2.311,2.311,0,0,0,1.666.576q2.224,0,2.259-2.338V6.2Zm9.861,7.251h-5.062v3.428h5.941V19H165.95V6.2h8.561V8.339h-5.924v3.05h5.063Zm6.346.7a5.64,5.64,0,0,1,.545-2.522,3.989,3.989,0,0,1,1.569-1.714,4.577,4.577,0,0,1,2.377-.606,4.33,4.33,0,0,1,3.142,1.178,4.727,4.727,0,0,1,1.358,3.2l.018.65a4.97,4.97,0,0,1-1.222,3.511,4.735,4.735,0,0,1-6.561,0,5.058,5.058,0,0,1-1.226-3.586Zm2.54.18a3.555,3.555,0,0,0,.51,2.073,1.831,1.831,0,0,0,2.9.009,3.89,3.89,0,0,0,.519-2.267,3.519,3.519,0,0,0-.519-2.06,1.686,1.686,0,0,0-1.459-.731,1.658,1.658,0,0,0-1.441.726A3.955,3.955,0,0,0,182.535,14.338ZM195.217,19V6.2H199.7a5.886,5.886,0,0,1,3.533.892,3.05,3.05,0,0,1,1.2,2.615,2.891,2.891,0,0,1-.483,1.657,2.792,2.792,0,0,1-1.345,1.05,2.7,2.7,0,0,1,1.551.993,2.936,2.936,0,0,1,.567,1.828,3.377,3.377,0,0,1-1.178,2.795,5.3,5.3,0,0,1-3.357.967Zm2.637-5.572v3.454h2.259a2.18,2.18,0,0,0,1.455-.444,1.522,1.522,0,0,0,.523-1.226,1.607,1.607,0,0,0-1.819-1.784Zm0-1.863h1.951q2-.035,2-1.591a1.47,1.47,0,0,0-.505-1.252,2.658,2.658,0,0,0-1.6-.382h-1.846Zm16.075,4.8h-4.623L208.427,19h-2.8l4.764-12.8h2.443l4.79,12.8h-2.8Zm-3.911-2.136h3.2l-1.608-4.79ZM228.352,6.2v8.429a4.315,4.315,0,0,1-1.314,3.322,5.066,5.066,0,0,1-3.59,1.222,5.123,5.123,0,0,1-3.56-1.187,4.242,4.242,0,0,1-1.345-3.261V6.2h2.637v8.446a2.438,2.438,0,0,0,.6,1.833,2.311,2.311,0,0,0,1.666.576q2.224,0,2.259-2.338V6.2Zm9.861,7.251h-5.062v3.428h5.941V19h-8.578V6.2h8.561V8.339h-5.924v3.05h5.063Zm14.818-1.011h-7.857V10.369h7.857Zm0,3.806h-7.857V14.175h7.857Zm11.6-.422,2.9-9.624h2.936L266.013,19h-2.751L258.824,6.2h2.927Zm13.605.536h-4.623L272.737,19h-2.8L274.7,6.2h2.443L281.93,19h-2.8Zm-3.911-2.136h3.2l-1.608-4.79ZM293.532,19H290.9l-5.133-8.42V19h-2.637V6.2h2.637l5.142,8.438V6.2h2.628Zm8.64-8.459-2.76-.781.519-1.589,2.733,1.1L302.488,6.2h1.723l-.176,3.126,2.663-1.08.519,1.607-2.812.781,1.846,2.338-1.4.993-1.6-2.566L301.67,13.88l-1.4-.949ZM317.385,13.8a13.488,13.488,0,0,1,.536-3.832A10.112,10.112,0,0,1,319.5,6.744,5.907,5.907,0,0,1,321.771,4.8l.492,1.371a6.118,6.118,0,0,0-2,2.936,13.592,13.592,0,0,0-.721,4.641v.272a13.852,13.852,0,0,0,.712,4.658,6.237,6.237,0,0,0,2.013,2.979L321.771,23a5.91,5.91,0,0,1-2.228-1.894,9.943,9.943,0,0,1-1.578-3.133,13.408,13.408,0,0,1-.58-3.709Zm12.27,5.2h-2.54V9.209l-3.032.94V8.084l5.3-1.9h.272Zm9.387-7.163h3.173v2.294h-3.173v3.586h-2.417V14.131h-3.182V11.837h3.182V8.4h2.417ZM346.424,19h-2.549V9.49h2.549Zm-2.7-11.971a1.251,1.251,0,0,1,.382-.94,1.648,1.648,0,0,1,2.079,0,1.244,1.244,0,0,1,.387.94,1.247,1.247,0,0,1-.391.949,1.629,1.629,0,0,1-2.065,0A1.247,1.247,0,0,1,343.726,7.029ZM352.893,14a12.8,12.8,0,0,1-.571,3.823,10.378,10.378,0,0,1-1.644,3.243A5.921,5.921,0,0,1,348.384,23l-.492-1.345a6.18,6.18,0,0,0,1.969-2.9,13.431,13.431,0,0,0,.747-4.509v-.466a13.735,13.735,0,0,0-.716-4.632,6.442,6.442,0,0,0-2-3.006l.492-1.345a5.923,5.923,0,0,1,2.254,1.881,10.244,10.244,0,0,1,1.644,3.173,12.708,12.708,0,0,1,.611,3.753Zm12.955-3.458-2.76-.781.519-1.589,2.733,1.1L366.165,6.2h1.723l-.176,3.126,2.663-1.08.519,1.607-2.812.781,1.846,2.338-1.4.993-1.6-2.566-1.582,2.479-1.4-.949ZM374.664,19h-2.549V9.49h2.549Zm-2.7-11.971a1.251,1.251,0,0,1,.382-.94,1.648,1.648,0,0,1,2.079,0,1.244,1.244,0,0,1,.387.94,1.247,1.247,0,0,1-.391.949,1.629,1.629,0,0,1-2.065,0A1.247,1.247,0,0,1,371.965,7.029Z" transform="translate(810 4231.5)" fill="#12263f"/>
                </g>
              </g>
            </g>
            <path id="Trazado_655250" data-name="Trazado 655250" d="M3.129-8.981,3.2-7.944a3.136,3.136,0,0,1,2.582-1.2,2.606,2.606,0,0,1,2.125.838A3.912,3.912,0,0,1,8.625-5.8V0h-2.4V-5.744a1.556,1.556,0,0,0-.332-1.108A1.486,1.486,0,0,0,4.79-7.2a1.65,1.65,0,0,0-1.519.863V0H.872V-8.981Z" transform="translate(1161.193 4249.277)" fill="#12263f"/>
          </g>
          <path id="Trazado_655248" data-name="Trazado 655248" d="M1.029-4.914a12.739,12.739,0,0,1,.506-3.619A9.551,9.551,0,0,1,3.03-11.575a5.579,5.579,0,0,1,2.142-1.839l.465,1.295A5.778,5.778,0,0,0,3.744-9.347a12.837,12.837,0,0,0-.681,4.383v.257a13.082,13.082,0,0,0,.672,4.4,5.89,5.89,0,0,0,1.9,2.814l-.465,1.27a5.581,5.581,0,0,1-2.1-1.789A9.391,9.391,0,0,1,1.577-.971a12.663,12.663,0,0,1-.548-3.5ZM12.617,0h-2.4V-9.247l-2.864.888V-10.31L12.36-12.1h.257Zm13.1-6.765h3V-4.6h-3v3.387H23.433V-4.6h-3V-6.765h3v-3.246h2.283ZM37.374,0H34.825V-9.51h2.549Zm-2.7-11.971a1.251,1.251,0,0,1,.382-.94A1.436,1.436,0,0,1,36.1-13.28a1.44,1.44,0,0,1,1.037.369,1.244,1.244,0,0,1,.387.94,1.247,1.247,0,0,1-.391.949,1.443,1.443,0,0,1-1.033.369,1.443,1.443,0,0,1-1.033-.369A1.247,1.247,0,0,1,34.676-11.971Zm8.87,7.248a12.088,12.088,0,0,1-.54,3.611,9.8,9.8,0,0,1-1.552,3.063,5.592,5.592,0,0,1-2.167,1.826l-.465-1.27A5.837,5.837,0,0,0,40.682-.232a12.685,12.685,0,0,0,.706-4.258v-.44a12.972,12.972,0,0,0-.677-4.375,6.084,6.084,0,0,0-1.888-2.839l.465-1.27a5.594,5.594,0,0,1,2.129,1.776,9.675,9.675,0,0,1,1.552,3A12,12,0,0,1,43.545-5.1Zm19.225.515H58.1V-6.143H62.77ZM74.657,0h-2.4V-9.247l-2.864.888V-10.31L74.4-12.1h.257Z" transform="translate(1125 4288.915)" fill="#12263f"/>
        </g>
      </g>
    </g>
  </g>
</svg>
